# xmcd
#
# Track frame offsets: 
#        150
#        15967
#        28750
#        50547
#        68630
#        87402
#        102307
#        116120
#        138337
#        159605
#        179540
#        196300
#        215995
#        232352
#
# Disc length: 3298 seconds
#
# Revision: 4
# Processed by: cddbd v1.5.2PL0 Copyright (c) Steve Scherf et al.
# Submitted via: ExactAudioCopy v0.99pb5
#
DISCID=ce0ce00e
DTITLE=Friedemann - Voyager in Expanse (1979-83)
DYEAR=1990
DGENRE=New Age
TTITLE0=Voyager Without Passport
TTITLE1=Take Off
TTITLE2=Air Borne
TTITLE3=Dämon All-Ein
TTITLE4=Ich kann nicht bleiben
TTITLE5=Gigolo
TTITLE6=The Beginning Of Hope
TTITLE7=Jungle Tune
TTITLE8=Hello Miss U, See You In Madrid
TTITLE9=For A Friend
TTITLE10=Tuning
TTITLE11=He Who Walks Alone
TTITLE12=After the Romance
TTITLE13=Atlantis
EXTD=YEAR: 1990
EXTT0=
EXTT1=
EXTT2=
EXTT3=
EXTT4=
EXTT5=
EXTT6=
EXTT7=
EXTT8=
EXTT9=
EXTT10=
EXTT11=
EXTT12=
EXTT13=
PLAYORDER=
